<?xml version="1.0" encoding="UTF-8"?>
<svg id="Camada_1" xmlns="http://www.w3.org/2000/svg" version="1.1" viewBox="0 0 2200 2200">
  <!-- Generator: Adobe Illustrator 30.4.0, SVG Export Plug-In . SVG Version: 2.1.4 Build 226)  -->
  <defs>
    <style>
      .st0 {
        fill: #f6f6f6;
      }

      .st1 {
        fill: #ddb56c;
      }
    </style>
  </defs>
  <g id="Objects">
    <g>
      <path class="st0" d="M1148.28,396.28c-80.62,620.38-145.97,685.74-766.36,766.36,620.38,80.62,685.74,145.97,766.36,766.36,80.62-620.38,145.97-685.74,766.36-766.36-620.38-80.62-685.74-145.97-766.36-766.36h0Z"/>
      <path class="st1" d="M338.94,540.87c102.6,13.33,157.1,25.35,189.35,57.6,32.25,32.25,44.27,86.75,57.6,189.35.52,4,3.93,7,7.96,7s7.44-2.99,7.96-7c13.33-102.6,25.35-157.1,57.6-189.35s86.75-44.27,189.35-57.6c4-.52,7-3.93,7-7.96s-2.99-7.44-7-7.96c-102.6-13.33-157.1-25.35-189.35-57.6s-44.27-86.75-57.6-189.35c-.52-4-3.93-7-7.96-7s-7.44,2.99-7.96,7c-13.33,102.6-25.35,157.1-57.6,189.35s-86.75,44.27-189.35,57.6c-4,.52-7,3.93-7,7.96s2.99,7.44,7,7.96h0ZM593.85,335.66c22.91,141.44,55.81,174.34,197.25,197.25-141.44,22.91-174.34,55.81-197.25,197.25-22.91-141.44-55.81-174.34-197.25-197.25,141.44-22.91,174.34-55.81,197.25-197.25h0Z"/>
      <path class="st1" d="M586.95,1684.44c-58.33-7.58-89.24-14.34-107.12-32.22s-24.63-48.79-32.22-107.12c-.52-4-3.93-7-7.96-7s-7.44,2.99-7.96,7c-7.58,58.33-14.34,89.24-32.22,107.12s-48.79,24.63-107.12,32.22c-4,.52-7,3.93-7,7.96s2.99,7.44,7,7.96c58.33,7.58,89.24,14.33,107.12,32.22s24.63,48.79,32.22,107.12c.52,4,3.93,7,7.96,7s7.44-2.99,7.96-7c7.58-58.33,14.33-89.24,32.22-107.12,17.88-17.88,48.79-24.63,107.12-32.22,4-.52,7-3.93,7-7.96s-2.99-7.44-7-7.96ZM468.47,1721.23c-14.46,14.46-22.57,34.54-28.82,65.57-6.26-31.03-14.36-51.11-28.82-65.57-14.46-14.46-34.54-22.57-65.57-28.82,31.03-6.26,51.11-14.36,65.57-28.82s22.57-34.54,28.82-65.57c6.26,31.03,14.36,51.11,28.82,65.57,14.46,14.46,34.54,22.57,65.57,28.82-31.03,6.26-51.11,14.36-65.57,28.82h0Z"/>
      <path class="st1" d="M1577.33,725.59c58.33,7.58,89.24,14.33,107.12,32.21s24.63,48.79,32.22,107.12c.52,4,3.93,7,7.96,7s7.44-2.99,7.96-7c7.58-58.33,14.33-89.24,32.22-107.12,17.88-17.88,48.79-24.64,107.12-32.21,4-.52,7-3.93,7-7.96s-2.99-7.44-7-7.96c-58.33-7.58-89.24-14.33-107.12-32.21s-24.63-48.79-32.22-107.12c-.52-4-3.93-7-7.96-7s-7.44,2.99-7.96,7c-7.58,58.33-14.34,89.24-32.22,107.12s-48.79,24.64-107.12,32.21c-4,.52-7,3.93-7,7.96s2.99,7.44,7,7.96ZM1695.81,688.8c14.46-14.46,22.57-34.54,28.82-65.57,6.26,31.03,14.36,51.11,28.82,65.57s34.54,22.57,65.57,28.82c-31.03,6.26-51.11,14.36-65.57,28.82s-22.57,34.54-28.82,65.57c-6.26-31.03-14.36-51.12-28.82-65.57-14.46-14.46-34.54-22.57-65.57-28.82,31.03-6.26,51.11-14.36,65.57-28.82Z"/>
      <path class="st0" d="M1687.07,1511c-15.98,122.95-28.93,135.91-151.88,151.88,122.95,15.98,135.91,28.93,151.88,151.88,15.98-122.95,28.93-135.91,151.88-151.88-122.95-15.98-135.91-28.93-151.88-151.88Z"/>
      <path class="st0" d="M1437.21,519.96c12.33-94.92,22.33-104.92,117.25-117.25-94.92-12.33-104.92-22.33-117.25-117.25-12.33,94.92-22.33,104.92-117.25,117.25,94.92,12.33,104.92,22.33,117.25,117.25Z"/>
      <path class="st0" d="M850.94,1493.33c-12.33,94.92-22.33,104.92-117.25,117.25,94.92,12.33,104.92,22.33,117.25,117.25,12.33-94.92,22.33-104.92,117.25-117.25-94.92-12.33-104.92-22.33-117.25-117.25Z"/>
    </g>
  </g>
</svg>