<?xml version="1.0" encoding="UTF-8"?>
<svg xmlns="http://www.w3.org/2000/svg" version="1.1" xmlns:cc="http://creativecommons.org/ns#" xmlns:dc="http://purl.org/dc/elements/1.1/" xmlns:inkscape="http://www.inkscape.org/namespaces/inkscape" xmlns:rdf="http://www.w3.org/1999/02/22-rdf-syntax-ns#" xmlns:sodipodi="http://sodipodi.sourceforge.net/DTD/sodipodi-0.dtd" xmlns:svg="http://www.w3.org/2000/svg" viewBox="0 0 600 950">
  <!-- Generator: Adobe Illustrator 30.4.0, SVG Export Plug-In . SVG Version: 2.1.4 Build 226)  -->
  <defs>
    <style>
      .st0 {
        fill: #f6f6f6;
      }

      .st1 {
        fill: #ddb56c;
      }
    </style>
  </defs>
  <g id="svg2" inkscape:version="0.91 r13725">
    <sodipodi:namedview id="base" width="0px" height="0px" bordercolor="#666666" borderopacity="1.0" fit-margin-bottom="0" fit-margin-left="0" fit-margin-right="0" fit-margin-top="0" inkscape:bbox-nodes="true" inkscape:bbox-paths="true" inkscape:current-layer="layer2" inkscape:cx="586.85237" inkscape:cy="-31.298198" inkscape:document-units="px" inkscape:object-paths="true" inkscape:pageopacity="0.0" inkscape:pageshadow="2" inkscape:showpageshadow="false" inkscape:snap-bbox="true" inkscape:window-height="1061" inkscape:window-maximized="1" inkscape:window-width="1920" inkscape:window-x="0" inkscape:window-y="19" inkscape:zoom="0.35355339" pagecolor="#ffffff" showborder="false" showgrid="false"/>
    <g id="layer2" inkscape:groupmode="layer" inkscape:label="Layer">
      <path id="rect3134" class="st1" d="M0,0v850h100v-50h-.06l.06-.04h50v-50h50v-50h50v100h50.73l-.73,100.03h50v50h100v-50h50v-100h-50l-.73-.04.73-100h-50v-50h200.01v-100h-50v.07-.07s-.01-50-.01-50h-50v-50h-50v-50h-50v-50h-50v-50h-50v-50h-50v-50h-50v-50h-50v-50h-50v-50h-50V0H0,0Z" inkscape:connector-curvature="0" sodipodi:nodetypes="ccccccccccccccccccccccccccccccccccccccccccccccccccccccc"/>
      <path id="rect56" class="st0" d="M50,100v699.97h50v-50h50v-50h50v-50h50v50h50v100h50v100.03h100v-100h-50v-100.03h-50v-100h200v-50h-50v-50h-50v-50h-50v-50h-50v-50h-50v-50h-50v-50h-50v-50h-50v-50h-50v-50h-50Z" inkscape:connector-curvature="0" sodipodi:nodetypes="ccccccccccccccccccccccccccccccccccccccccc"/>
    </g>
  </g>
</svg>