<?xml version="1.0" encoding="UTF-8"?>
<svg id="Camada_1" xmlns="http://www.w3.org/2000/svg" version="1.1" viewBox="0 0 1000 1000">
  <!-- Generator: Adobe Illustrator 30.4.0, SVG Export Plug-In . SVG Version: 2.1.4 Build 226)  -->
  <defs>
    <style>
      .st0 {
        fill: #f6f6f6;
      }

      .st1 {
        fill: #ddb56c;
      }
    </style>
  </defs>
  <g>
    <path class="st0" d="M784.23,469.31v.12l-.11,31.78c-.04,12.36-.88,24.67-2.52,36.85,0,.04,0,.08-.02.12-3.31,24.67-9.87,48.81-19.46,71.72l5.34,10.68,17.71,35.4,19.55,39.12,7.05,14.09,5.09,10.19c1.52-2.19,3.01-4.4,4.49-6.62,13-19.65,24.27-40.67,33.5-62.5,19.96-47.19,30.15-97.28,30.27-148.87l.08-32.08h-100.97Z"/>
    <path class="st0" d="M765.44,221.24l-71.15,71.15-14.14-11.61c-35.57-29.26-77.36-49.3-121.97-58.63l-17.69-35.4-19.49-38.98-9.9-19.79-9.6,19.19-18.73,37.45-15.78,31.59-.99,1.97c-10.53,1.25-20.88,3.08-31.01,5.45-126.22,29.43-219.19,142.69-219.19,276.7,0,39.57,8.16,78.24,23.85,113.94l-14.04,28.08-40.18,80.38c-1.82-2.55-3.6-5.14-5.36-7.74-13.64-20.33-25.39-42.02-34.99-64.72-20.09-47.52-30.28-97.97-30.28-149.94s10.19-102.42,30.28-149.94c19.4-45.86,47.17-87.04,82.53-122.41,35.38-35.37,76.57-63.14,122.41-82.53,47.53-20.1,97.98-30.29,149.94-30.29.62,0,1.23,0,1.85.01,7.02.03,14.11.25,21.06.66,43.88,2.56,86.62,12.52,127.02,29.62,41.43,17.52,79.17,41.96,112.17,72.64l3.38,3.15Z"/>
  </g>
  <polygon class="st0" points="738.48 538.06 835.96 538.06 885.01 469.31 700.33 469.31 738.48 538.06"/>
  <polygon class="st1" points="574.26 469.43 454.77 469.43 412.03 538.18 608.69 538.18 574.26 469.43"/>
  <path class="st1" d="M883.61,877.03h-85.91l-42.98-85.98-5.6-11.19-9.32-18.65-17.42-34.81-15.16-30.35-12.03-24.06-184.91-369.82-192.34,384.67-12.01,24.03-14.86,29.7-26.12,52.23-5.69,11.39-36.41,72.84h-85.91l64.78-129.55,5.27-10.54,46.09-92.2,12.54-24.9,200.38-391.66c12.4-1.11,24.81-2.2,37.26-2.17,18.46-.08,36.73,2.85,54.92,6.14l185.55,365.33,12.84,25.49,17.71,35.4,19.55,39.12,11.15,22.3,5.13,10.27,73.5,146.97Z"/>
</svg>