<?xml version="1.0" encoding="UTF-8"?>
<svg id="Camada_1" xmlns="http://www.w3.org/2000/svg" version="1.1" viewBox="0 0 1267 1267">
  <!-- Generator: Adobe Illustrator 30.4.0, SVG Export Plug-In . SVG Version: 2.1.4 Build 226)  -->
  <defs>
    <style>
      .st0 {
        fill: #080908;
      }

      .st1 {
        fill: #050709;
      }

      .st2 {
        fill: #080808;
      }

      .st3 {
        fill: #0b0c0b;
      }

      .st4 {
        fill: #090909;
      }

      .st5 {
        fill: #040607;
      }

      .st6 {
        fill: #060707;
      }

      .st7 {
        fill: #040707;
      }

      .st8 {
        fill: #050707;
      }

      .st9 {
        fill: #0b0b0b;
      }

      .st10 {
        fill: #060807;
      }

      .st11 {
        fill: #040608;
      }

      .st12 {
        fill: #060708;
      }

      .st13 {
        fill: #070807;
      }

      .st14 {
        fill: #070707;
      }

      .st15 {
        fill: #050708;
      }
    </style>
  </defs>
  <path class="st11" d="M281.88,827.92l229.71-311.92c18.72-25.42,35.02-50.74,50.36-78,25.58-45.46,44.18-103.48,33.99-154.54-5.8-29.04-25.85-50.72-54.61-57.7-20.68-5.02-42.28-4.95-62.96.42-36.83,9.55-55.42,41.79-55.65,79.41l-.25,41.36c-.03,5.26-4.57,11.84-10.57,11.83l-119.95-.17c-8.08-.01-10.03-10.02-10.11-16.02-.33-27.11.25-52.09,5.5-78.25,12.11-60.37,50.17-109.9,106.04-135.94,50.89-23.72,112.56-27.54,168.07-20.38,32.87,4.24,63.44,13.29,91.87,29.73,46.22,26.71,77.36,70.05,87.06,122.87,8.26,45,4.34,90.45-8.26,134.58-8.56,30-21.02,56.77-36.26,83.9-21.76,38.72-45.57,74.66-71.98,110.61l-153.71,209.2c-5.05,6.88,1,19.24,9.15,19.24l254.04.3c6.52,0,11.2,6.43,11.21,12.34l.08,91.07c0,9.37-6.14,13.76-15.02,13.76l-434.25-.11c-7.35.2-13.27-4.91-13.28-11.97l-.2-95.63h-.02Z"/>
  <path class="st11" d="M973.15,935.56l-92.07-.18c-7.57-.01-12.48-6.48-12.48-13.51l.04-91.06c0-6.84,5.42-12.73,12.55-12.74l91.08-.12c7.28,0,12.82,5.61,12.83,12.79l.02,91.22c0,6.83-4.37,12.3-11.96,13.61h-.01Z"/>
  <path class="st11" d="M818.9,705.2l-102.72.32c-5.14.02-8.86-1.58-11.56-5.18-2.36-3.15-4.27-9.13-.84-13.47l103.68-131.2c3.76-4.76,9.19-5.81,14.27-4.22,4.49,1.41,8.1,5.99,8.09,11.96l-.07,131.11c0,5.12-4.85,10.65-10.85,10.67h0Z"/>
  <path class="st1" d="M413.52,985.03c5.36-1.58,10.53-1.21,16.36-.2l-15.88,113.1c-6.55,1.04-11.93,1.06-18.41.11l-6.84-57.36c-.99-.72-2.19-1.06-2.98-1.12l-7.66,58.44c-5.79,1.08-11.3.79-18.27.27l-15.73-112.95c4.93-1.95,10.83-1.56,16.31-.54,4.1,20.61,2.68,41.06,9.3,62.06l9.09-62.15,16.53-.34,7.83,60.26c.75.02,1.98.46,2.62.68l7.74-60.26h0Z"/>
  <path class="st15" d="M559.24,1097.61c-5.79,1.7-11.61,1.26-17.46.39-7.93-20.22-10.06-41.56-20.38-61.33l-1.79,61.47-15.92.16-.09-113.28c6.26-1.37,12.34-1.3,18.26-.23l19.5,64.26,2.01-64.36c5.2-.81,10.36-.92,15.85.07v112.85h.02Z"/>
  <path class="st5" d="M971.42,1048.09c7.22-6.24,11.37-13.97,11.22-23.65l-.28-17.64c-.2-12.4-10.36-22.54-22.82-22.44l-28.76.22-.03,113.32c5.53,1.11,10.45,1.2,16.46.1l.35-45.28c1.24-1.79,6.91-1.95,8.34-.43l11.84,45.57c5.8,1.27,11.3,1.49,17.12-.48l-13.44-49.29ZM964.37,1030.3c-2.31,6.33-11.82,5.42-16.65,4.05l-.17-32.93c5.14-1.43,14.41-2.25,16.79,3.8,2.65,6.74,2.75,17.62.03,25.08Z"/>
  <path class="st7" d="M820.29,982.38c-14.48-.3-26.84,9.8-26.84,24.63l-.02,68.59c-.01,14.81,12.09,25.42,27.7,24.77h.01c13.33-.55,24.61-10.02,24.64-23.26l.17-70.2c.04-14.49-11.99-24.25-25.66-24.53ZM819.43,1083.86c-5.89-.26-9.69-4.15-9.68-10.6l.05-63.26c0-6.33,3.57-11.04,9.55-11.21,4.93-.14,10.26,3.39,10.27,9.77l.06,64.61c0,7.42-4.95,10.92-10.25,10.69Z"/>
  <path class="st8" d="M897.09,985.03c5.47-1.45,10.35-1.21,16.24-.35l-.09,90.91c-.01,14.12-10.45,24.26-24.15,24.75-14.66.52-26.78-9.85-26.81-24.93l-.2-90.6c5.88-1.03,11.12-1.24,16.69.22l.1,89.01c0,6.08,4.1,9.88,9.33,9.78,4.91-.09,8.92-3.77,8.92-9.76l-.02-89.03h0Z"/>
  <path class="st12" d="M483.58,1048.43l-23.76.45-.19,33.13,29.96.56.18,15.76h-47l.05-113.83,46.77.02v15.57l-29.78.62-.26,31.08,23.28.73c1.36,4.74.9,8.92.76,15.92h0Z"/>
  <path class="st5" d="M774.98,1033.97c1.04,5.56.99,10.58.25,16.07l-22.62.45-.32,47.11c-5.46,1.58-10.95,1.48-16.68.29l.05-113.48,45.83-.12c.96,5.76.9,10.47-.03,16.04l-28.82.35-.03,33.14,22.38.15h0Z"/>
  <path class="st5" d="M692.04,985.18l-21.81,65.44-.21,47.52c-5.81.78-10.76.74-16.26-.12l-.23-47.61-21.58-65.63c6.53-1.02,11.25-.78,17.25-.25l11.34,37.83c.61.44,2.9-.1,3.1-.75l11.15-36.88c5.49-.81,10.05-1.39,17.25.45h0Z"/>
  <path class="st12" d="M606.86,1097.53c-5.49,1.82-11.13,1.46-16.81.33l-.13-97.06-17.62-.39v-16.13l52.13.06.04,15.75-17.55.53-.06,96.92h0Z"/>
  <path class="st10" d="M316.78,1097.23c-4.72,2.27-9.79,1.55-16.46.98l-.31-97.42-17.6-.44c-.88-5.54-.95-10.32.03-16.11l52.12.17-.14,15.56-17.61.82-.04,96.42v.02Z"/>
  <path class="st14" d="M306.64,1144.54c2.54-3.61,4.5-6.54,3.15-10.27-.78-2.16-3.59-5.14-7.3-5.22l-20.57-.46.19,33.12,21.49-.66c4.92-.15,7.06-3.86,7.57-7.73.47-3.59-2.33-6.38-4.53-8.78ZM291.43,1133.47c3.23-.77,7.21-.68,8.92,1.43,2.14,2.64.44,5.79-1.25,6.47-1.48.6-4.51,1.84-7.1.52-1.98-1.01-1.4-6.69-.57-8.42ZM300.02,1156.37c-1.78.83-6.03,1.35-8.12.18-1.75-.98-1.72-6.36-.44-8.45,1.28-2.09,7.56-1.61,9.4.64,2.46,3,.94,6.8-.84,7.63Z"/>
  <path class="st4" d="M477.73,1146.78c5.14-2.23,6.54-6.37,5.75-10.7-.74-4.07-4.42-7.28-9.37-7.33l-18.76-.18v33.05l9.04.23.35-13.94c7.72-1.57,7.08,12.8,12.4,13.85h0c2.4.47,5.16.69,7.17-.77l-6.58-14.21ZM473.63,1141.48c-1.68,1.98-4.93,2.15-6.71,1.9-3.03-.41-3.95-5.55-1.64-9.01,1.53-2.3,6.02-1.35,7.55-.28,2.18,1.52,2.26,5.67.8,7.39Z"/>
  <path class="st13" d="M567.47,1144.56c2.09-3.64,4.26-6.55,2.86-10.08-.82-2.07-3.32-5.25-6.9-5.33l-20.92-.47.29,33.18,21.52-.89c4.74-.19,6.71-3.99,7.42-7.74.63-3.31-2.79-6.2-4.27-8.67ZM551.8,1134.49c.97-2.22,7.72-1.88,9.17.28,2.09,3.11.39,5.96-1.01,6.6-1.81.82-4.44,1.22-6.24.98-2.48-.33-3.29-4.74-1.92-7.86ZM561.05,1156.07c-2.02,1.52-7.89,1.78-9.18-.07-1.04-2.22-.96-7.15.38-8.3,1.79-1.54,6.64-.7,8.74.52,1.85,1.08,2.76,5.81.06,7.85Z"/>
  <path class="st6" d="M822.71,1147.47c4.66-3.03,6.41-6.76,5.58-11.67-.67-3.95-4.63-7.12-9.79-7.11l-18.22.04.21,31.92c1.67,1.97,6.93,1.74,8.86.36l.57-13.53c7.75-.01,7.16,13.16,11.61,14.21h0c2.06.49,5.31.7,7.63-.91l-6.46-13.31ZM818.9,1141.51c-1.19,1.77-5.8,2.36-7.76,1.76-2.4-.74-2.98-5.48-1.11-9.02h0c.98-1.86,6.79-1.27,8.37.06,1.58,1.33,1.68,5.43.49,7.2Z"/>
  <path class="st0" d="M733.39,1129.01c-3.75-.91-9.93-1.54-12.52.68l-9.06,31.87c3.87.83,7.98,1.11,8.62-.62l1.97-5.33c.87-2.37,8.14-1.9,9.51.08h0c1.59,2.29,1.29,5.69,2.89,6.03,2.21.48,4.46.55,7.63-.45l-9.03-32.26ZM729.75,1148.75c-.09,1.55-5.87,1.03-5.71-.51.42-3.98,1.22-6.89,3.1-9.7,1.97,3.41,2.85,6.22,2.6,10.21h.01Z"/>
  <path class="st2" d="M388.25,1128.79c-4.81-.65-8.34-.76-12.5.45l-9.02,32.15c3.15,1.13,6.64.81,8.33-.1,1.16-.63.84-3.56,2.07-5.61s7.99-2.1,9.44-.02h0c2.14,3.07,2.29,6,3.92,6.27,2.01.32,4.61.42,7.27-.61l-9.51-32.53ZM378.87,1149.2c.51-4.68,1.52-8.03,3.55-11.31,1.34,3.78,2.36,6.2,2.33,10.73-1.12,1.17-4.74,1.14-5.88.58Z"/>
  <path class="st2" d="M975.75,1128.77c-4.81-.56-8.32-.69-12.48.22l-8.95,32.29c3.01,1.38,6.61.96,8.18-.13,1.08-.75.89-3.45,2.17-5.46,1.41-2.22,8.89-2.36,9.89.44,1.05,2.93,1.56,5.45,3.62,5.69,2.24.26,4.11.44,7.09-.49l-9.52-32.56ZM966.53,1149.54c.27-3.46.6-7.41,3.17-11.48,1.57,3.22,2.39,5.84,2.77,10.5-1.17.85-3.36,1.14-5.94.98Z"/>
  <path class="st3" d="M651.88,1146.75c-2.47,1.71-8.94-.62-11.77.97-1.68.94-1.89,5.25-.8,8.94l15.69.54c.58,1.22.5,3.52-.03,4.65l-24.88-.03-.04-33.28,25.03-.04c.43,1.82.38,3-.06,4.75l-15.74.13c-.66,3.4-.63,6.04.18,9.26,4.52-.04,8.31-.54,12.14.51.62.17.79,3.27.27,3.63v-.03Z"/>
  <path class="st9" d="M896.36,1160.19c-.02,2.06-6.41,2.46-8.7,1.4l-.24-32.84c3.54-.5,6.12-.44,9.27-.03l-.33,31.47Z"/>
</svg>